<?xml version="1.0" encoding="UTF-8"?>
<svg xmlns="http://www.w3.org/2000/svg" xmlns:xlink="http://www.w3.org/1999/xlink" width="50px" height="50px" viewBox="0 0 50 50" version="1.1">
<g id="surface1">
<path style="fill:none;stroke-width:4;stroke-linecap:round;stroke-linejoin:round;stroke:rgb(56.470591%,70.19608%,70.980394%);stroke-opacity:1;stroke-miterlimit:4;" d="M 131.5 100 C 131.5 51.125 117.390625 11.5 100 11.5 C 82.609375 11.5 68.5 51.125 68.5 100 C 68.5 148.875 82.609375 188.5 100 188.5 C 117.390625 188.5 131.5 148.875 131.5 100 Z M 131.5 100 " transform="matrix(0.25,0,0,0.25,0,0)"/>
<path style="fill:none;stroke-width:4;stroke-linecap:round;stroke-linejoin:round;stroke:rgb(56.470591%,70.19608%,70.980394%);stroke-opacity:1;stroke-miterlimit:4;" d="M 191.997868 100.001231 C 192.005127 82.045055 150.810843 67.506962 100.0026 67.504504 C 49.194358 67.502046 7.99586 82.050405 8.002132 99.998769 C 7.994873 117.954945 49.189157 132.493038 99.9974 132.495496 C 150.805642 132.497954 192.00414 117.949595 191.997868 100.001231 Z M 191.997868 100.001231 " transform="matrix(0.216506,0.125,-0.125,0.216506,15.849365,-9.150635)"/>
<path style="fill:none;stroke-width:4;stroke-linecap:round;stroke-linejoin:round;stroke:rgb(56.470591%,70.19608%,70.980394%);stroke-opacity:1;stroke-miterlimit:4;" d="M 191.997868 99.998769 C 192.00414 82.050405 150.805642 67.502046 99.9974 67.504504 C 49.189157 67.506962 7.994873 82.045055 8.002132 100.001231 C 7.99586 117.949595 49.194358 132.497954 100.0026 132.495496 C 150.810843 132.493038 192.005127 117.954945 191.997868 99.998769 Z M 191.997868 99.998769 " transform="matrix(0.216506,-0.125,0.125,0.216506,-9.150635,15.849365)"/>
<path style=" stroke:none;fill-rule:nonzero;fill:rgb(57.647061%,56.862748%,75.294119%);fill-opacity:1;" d="M 22 9 C 22 7.621094 20.878906 6.5 19.5 6.5 C 18.121094 6.5 17 7.621094 17 9 C 17 10.378906 18.121094 11.5 19.5 11.5 C 20.878906 11.5 22 10.378906 22 9 Z M 22 9 "/>
<path style=" stroke:none;fill-rule:nonzero;fill:rgb(57.647061%,56.862748%,75.294119%);fill-opacity:1;" d="M 15 36.5 C 15 35.121094 13.878906 34 12.5 34 C 11.121094 34 10 35.121094 10 36.5 C 10 37.878906 11.121094 39 12.5 39 C 13.878906 39 15 37.878906 15 36.5 Z M 15 36.5 "/>
<path style=" stroke:none;fill-rule:nonzero;fill:rgb(57.647061%,56.862748%,75.294119%);fill-opacity:1;" d="M 40 36.5 C 40 35.121094 38.878906 34 37.5 34 C 36.121094 34 35 35.121094 35 36.5 C 35 37.878906 36.121094 39 37.5 39 C 38.878906 39 40 37.878906 40 36.5 Z M 40 36.5 "/>
<path style=" stroke:none;fill-rule:nonzero;fill:rgb(57.647061%,56.862748%,75.294119%);fill-opacity:1;" d="M 25 19.5 C 23.648438 20.398438 22.101562 20.851562 20.25 21 L 20.25 24.25 C 20.25 26.925781 22.148438 29.101562 25 30 C 27.851562 29.101562 29.75 26.925781 29.75 24.25 L 29.75 21 C 27.898438 20.851562 26.351562 20.398438 25 19.5 Z M 25 19.5 "/>
</g>
</svg>
