<?xml version="1.0" encoding="UTF-8"?>
<svg xmlns="http://www.w3.org/2000/svg" xmlns:xlink="http://www.w3.org/1999/xlink" width="50px" height="50px" viewBox="0 0 50 50" version="1.1">
<g id="surface1">
<path style=" stroke:none;fill-rule:nonzero;fill:rgb(100%,50.980395%,3.137255%);fill-opacity:1;" d="M 22.128906 2.445312 C 22.25 2.484375 22.371094 2.527344 22.492188 2.566406 C 22.570312 2.578125 22.648438 2.59375 22.730469 2.605469 C 22.984375 2.691406 22.984375 2.691406 23.203125 2.917969 C 23.550781 3.257812 23.878906 3.371094 24.328125 3.546875 C 24.328125 3.625 24.328125 3.707031 24.328125 3.789062 C 24.613281 3.886719 24.890625 3.964844 25.183594 4.035156 C 25.183594 4.113281 25.183594 4.195312 25.183594 4.277344 C 25.304688 4.277344 25.425781 4.277344 25.550781 4.277344 C 25.550781 4.359375 25.550781 4.441406 25.550781 4.523438 C 25.671875 4.523438 25.792969 4.523438 25.917969 4.523438 C 25.917969 4.605469 25.917969 4.683594 25.917969 4.769531 C 26.011719 4.761719 26.101562 4.753906 26.199219 4.746094 C 26.527344 4.769531 26.527344 4.769531 26.75 4.9375 C 26.894531 5.132812 26.894531 5.132812 26.894531 5.378906 C 27.015625 5.378906 27.136719 5.378906 27.261719 5.378906 C 27.261719 5.460938 27.261719 5.539062 27.261719 5.625 C 27.421875 5.625 27.585938 5.625 27.75 5.625 C 27.75 5.703125 27.75 5.785156 27.75 5.867188 C 27.910156 5.867188 28.074219 5.867188 28.238281 5.867188 C 28.238281 5.949219 28.238281 6.03125 28.238281 6.113281 C 28.402344 6.113281 28.5625 6.113281 28.730469 6.113281 C 28.730469 6.191406 28.730469 6.273438 28.730469 6.355469 C 28.851562 6.355469 28.96875 6.355469 29.09375 6.355469 C 29.09375 6.4375 29.09375 6.519531 29.09375 6.601562 C 29.214844 6.601562 29.335938 6.601562 29.460938 6.601562 C 29.542969 6.683594 29.625 6.761719 29.707031 6.847656 C 29.789062 6.847656 29.867188 6.847656 29.949219 6.847656 C 30.027344 6.925781 30.101562 7.003906 30.179688 7.082031 C 30.445312 7.339844 30.574219 7.40625 30.929688 7.457031 C 30.929688 7.539062 30.929688 7.617188 30.929688 7.703125 C 31.050781 7.703125 31.171875 7.703125 31.296875 7.703125 C 31.296875 7.78125 31.296875 7.863281 31.296875 7.945312 C 31.417969 7.945312 31.539062 7.945312 31.664062 7.945312 C 31.664062 8.027344 31.664062 8.109375 31.664062 8.191406 C 31.757812 8.1875 31.847656 8.179688 31.945312 8.175781 C 32.273438 8.191406 32.273438 8.191406 32.640625 8.433594 C 32.640625 8.515625 32.640625 8.597656 32.640625 8.679688 C 32.761719 8.679688 32.882812 8.679688 33.007812 8.679688 C 33.007812 8.761719 33.007812 8.839844 33.007812 8.925781 C 33.089844 8.957031 33.171875 8.988281 33.257812 9.023438 C 33.667969 9.1875 34.070312 9.359375 34.472656 9.535156 C 34.472656 9.617188 34.472656 9.695312 34.472656 9.78125 C 34.59375 9.78125 34.714844 9.78125 34.839844 9.78125 C 34.839844 9.859375 34.839844 9.941406 34.839844 10.023438 C 34.914062 10.042969 34.988281 10.058594 35.0625 10.078125 C 35.277344 10.132812 35.488281 10.199219 35.695312 10.269531 C 35.695312 10.351562 35.695312 10.429688 35.695312 10.511719 C 35.816406 10.511719 35.9375 10.511719 36.0625 10.511719 C 36.0625 10.59375 36.0625 10.675781 36.0625 10.757812 C 36.15625 10.75 36.25 10.742188 36.347656 10.734375 C 36.675781 10.757812 36.675781 10.757812 36.894531 10.925781 C 37.042969 11.125 37.042969 11.125 37.042969 11.371094 C 37.164062 11.371094 37.285156 11.371094 37.410156 11.371094 C 37.410156 11.449219 37.410156 11.53125 37.410156 11.613281 C 37.570312 11.613281 37.730469 11.613281 37.898438 11.613281 C 37.898438 11.695312 37.898438 11.773438 37.898438 11.859375 C 38.058594 11.859375 38.21875 11.859375 38.386719 11.859375 C 38.386719 11.9375 38.386719 12.019531 38.386719 12.101562 C 38.460938 12.121094 38.53125 12.136719 38.609375 12.15625 C 38.820312 12.210938 39.03125 12.277344 39.242188 12.347656 C 39.242188 12.429688 39.242188 12.507812 39.242188 12.589844 C 39.363281 12.589844 39.484375 12.589844 39.609375 12.589844 C 39.648438 12.671875 39.691406 12.753906 39.730469 12.835938 C 39.851562 12.835938 39.972656 12.835938 40.097656 12.835938 C 40.261719 12.996094 40.425781 13.160156 40.585938 13.324219 C 40.707031 13.367188 40.828125 13.40625 40.953125 13.449219 C 40.953125 13.527344 40.953125 13.609375 40.953125 13.691406 C 41.113281 13.691406 41.277344 13.691406 41.441406 13.691406 C 41.441406 13.773438 41.441406 13.851562 41.441406 13.9375 C 41.5625 13.9375 41.683594 13.9375 41.808594 13.9375 C 41.808594 14.015625 41.808594 14.097656 41.808594 14.179688 C 41.898438 14.171875 41.984375 14.160156 42.078125 14.148438 C 42.527344 14.191406 42.707031 14.363281 43.03125 14.671875 C 43.070312 14.75 43.113281 14.832031 43.152344 14.914062 C 43.234375 14.914062 43.316406 14.914062 43.398438 14.914062 C 43.421875 15.203125 43.421875 15.203125 43.398438 15.527344 C 43.03125 15.769531 43.03125 15.769531 42.542969 15.769531 C 42.542969 15.851562 42.542969 15.929688 42.542969 16.015625 C 42.382812 16.015625 42.21875 16.015625 42.054688 16.015625 C 42.054688 16.09375 42.054688 16.175781 42.054688 16.257812 C 41.933594 16.257812 41.8125 16.257812 41.6875 16.257812 C 41.6875 16.339844 41.6875 16.421875 41.6875 16.503906 C 41.527344 16.503906 41.363281 16.503906 41.199219 16.503906 C 41.199219 16.585938 41.199219 16.664062 41.199219 16.75 C 40.289062 17.289062 40.289062 17.289062 39.851562 17.359375 C 39.851562 17.441406 39.851562 17.519531 39.851562 17.605469 C 39.53125 17.605469 39.207031 17.605469 38.875 17.605469 C 38.875 17.523438 38.875 17.441406 38.875 17.359375 C 38.78125 17.371094 38.6875 17.378906 38.59375 17.390625 C 38.484375 17.378906 38.375 17.371094 38.265625 17.359375 C 38.140625 17.195312 38.019531 17.035156 37.898438 16.871094 C 37.617188 16.71875 37.339844 16.617188 37.042969 16.503906 C 37.042969 16.421875 37.042969 16.34375 37.042969 16.257812 C 36.921875 16.257812 36.800781 16.257812 36.675781 16.257812 C 36.675781 16.179688 36.675781 16.097656 36.675781 16.015625 C 36.511719 16.015625 36.351562 16.015625 36.1875 16.015625 C 36.1875 15.933594 36.1875 15.851562 36.1875 15.769531 C 36.066406 15.769531 35.945312 15.769531 35.820312 15.769531 C 35.820312 15.691406 35.820312 15.609375 35.820312 15.527344 C 35.617188 15.527344 35.414062 15.527344 35.207031 15.527344 C 35.207031 15.445312 35.207031 15.363281 35.207031 15.28125 C 35.113281 15.234375 35.113281 15.234375 35.015625 15.191406 C 34.769531 15.0625 34.53125 14.925781 34.289062 14.785156 C 33.988281 14.609375 33.722656 14.480469 33.375 14.425781 C 33.375 14.34375 33.375 14.265625 33.375 14.179688 C 33.253906 14.179688 33.132812 14.179688 33.007812 14.179688 C 33.007812 14.101562 33.007812 14.019531 33.007812 13.9375 C 32.886719 13.9375 32.765625 13.9375 32.640625 13.9375 C 32.640625 13.855469 32.640625 13.773438 32.640625 13.691406 C 32.480469 13.691406 32.316406 13.691406 32.152344 13.691406 C 32.152344 13.609375 32.152344 13.53125 32.152344 13.449219 C 31.988281 13.449219 31.828125 13.449219 31.664062 13.449219 C 31.664062 13.328125 31.664062 13.207031 31.664062 13.082031 C 31.5 13.121094 31.339844 13.160156 31.171875 13.203125 C 31.171875 13.082031 31.171875 12.960938 31.171875 12.835938 C 31.050781 12.835938 30.929688 12.835938 30.808594 12.835938 C 30.808594 12.753906 30.808594 12.675781 30.808594 12.589844 C 30.644531 12.589844 30.484375 12.589844 30.316406 12.589844 C 30.316406 12.511719 30.316406 12.429688 30.316406 12.347656 C 30.210938 12.320312 30.210938 12.320312 30.105469 12.292969 C 29.847656 12.230469 29.59375 12.167969 29.339844 12.101562 C 29.339844 12.023438 29.339844 11.941406 29.339844 11.859375 C 29.21875 11.859375 29.097656 11.859375 28.972656 11.859375 C 28.972656 11.777344 28.972656 11.695312 28.972656 11.613281 C 28.878906 11.625 28.785156 11.632812 28.691406 11.644531 C 28.582031 11.632812 28.472656 11.625 28.363281 11.613281 C 28.308594 11.539062 28.253906 11.464844 28.199219 11.386719 C 27.953125 11.070312 27.722656 10.957031 27.359375 10.789062 C 27.25 10.734375 27.140625 10.683594 27.027344 10.628906 C 26.902344 10.574219 26.902344 10.574219 26.773438 10.511719 C 26.773438 10.433594 26.773438 10.351562 26.773438 10.269531 C 26.609375 10.269531 26.449219 10.269531 26.285156 10.269531 C 26.285156 10.1875 26.285156 10.109375 26.285156 10.023438 C 26.164062 10.023438 26.042969 10.023438 25.917969 10.023438 C 25.917969 9.945312 25.917969 9.863281 25.917969 9.78125 C 25.828125 9.789062 25.742188 9.800781 25.648438 9.808594 C 25.203125 9.769531 25.027344 9.578125 24.695312 9.289062 C 24.613281 9.289062 24.53125 9.289062 24.449219 9.289062 C 24.382812 9.21875 24.3125 9.144531 24.242188 9.070312 C 23.886719 8.730469 23.5625 8.609375 23.105469 8.433594 C 23.105469 8.355469 23.105469 8.273438 23.105469 8.191406 C 22.984375 8.191406 22.863281 8.191406 22.738281 8.191406 C 22.738281 8.109375 22.738281 8.03125 22.738281 7.945312 C 22.324219 8.011719 21.917969 8.082031 21.515625 8.191406 C 21.515625 8.269531 21.515625 8.351562 21.515625 8.433594 C 21.394531 8.433594 21.273438 8.433594 21.148438 8.433594 C 21.148438 8.515625 21.148438 8.597656 21.148438 8.679688 C 20.988281 8.679688 20.828125 8.679688 20.660156 8.679688 C 20.660156 8.761719 20.660156 8.839844 20.660156 8.925781 C 20.480469 9.007812 20.480469 9.007812 20.300781 9.09375 C 19.917969 9.25 19.917969 9.25 19.804688 9.535156 C 19.644531 9.535156 19.480469 9.535156 19.316406 9.535156 C 19.316406 9.617188 19.316406 9.695312 19.316406 9.78125 C 19.152344 9.78125 18.992188 9.78125 18.828125 9.78125 C 18.828125 9.859375 18.828125 9.941406 18.828125 10.023438 C 18.707031 10.023438 18.585938 10.023438 18.460938 10.023438 C 18.460938 10.105469 18.460938 10.1875 18.460938 10.269531 C 18.136719 10.449219 17.984375 10.511719 17.605469 10.511719 C 17.605469 10.59375 17.605469 10.675781 17.605469 10.757812 C 17.484375 10.757812 17.363281 10.757812 17.238281 10.757812 C 17.175781 10.941406 17.175781 10.941406 17.113281 11.125 C 16.933594 11.0625 16.933594 11.0625 16.75 11.003906 C 16.75 11.125 16.75 11.246094 16.75 11.371094 C 16.585938 11.371094 16.425781 11.371094 16.257812 11.371094 C 16.257812 11.449219 16.257812 11.53125 16.257812 11.613281 C 16.136719 11.613281 16.015625 11.613281 15.890625 11.613281 C 15.890625 11.695312 15.890625 11.773438 15.890625 11.859375 C 15.730469 11.859375 15.570312 11.859375 15.402344 11.859375 C 15.402344 11.9375 15.402344 12.019531 15.402344 12.101562 C 15.242188 12.101562 15.082031 12.101562 14.914062 12.101562 C 14.914062 12.183594 14.914062 12.265625 14.914062 12.347656 C 14.105469 12.835938 14.105469 12.835938 13.691406 12.835938 C 13.691406 12.917969 13.691406 12.996094 13.691406 13.082031 C 13.539062 13.28125 13.539062 13.28125 13.324219 13.449219 C 13.164062 13.449219 13.003906 13.449219 12.835938 13.449219 C 12.835938 13.527344 12.835938 13.609375 12.835938 13.691406 C 12.675781 13.691406 12.511719 13.691406 12.347656 13.691406 C 12.347656 13.773438 12.347656 13.851562 12.347656 13.9375 C 12.226562 13.9375 12.105469 13.9375 11.980469 13.9375 C 11.980469 14.015625 11.980469 14.097656 11.980469 14.179688 C 11.820312 14.179688 11.65625 14.179688 11.492188 14.179688 C 11.492188 14.261719 11.492188 14.34375 11.492188 14.425781 C 10.679688 14.914062 10.679688 14.914062 10.269531 14.914062 C 10.269531 15.035156 10.269531 15.15625 10.269531 15.28125 C 10.109375 15.28125 9.945312 15.28125 9.78125 15.28125 C 9.78125 15.363281 9.78125 15.441406 9.78125 15.527344 C 9.660156 15.527344 9.539062 15.527344 9.414062 15.527344 C 9.414062 15.605469 9.414062 15.6875 9.414062 15.769531 C 9.25 15.769531 9.089844 15.769531 8.925781 15.769531 C 8.925781 15.851562 8.925781 15.929688 8.925781 16.015625 C 8.761719 16.015625 8.601562 16.015625 8.433594 16.015625 C 8.433594 16.09375 8.433594 16.175781 8.433594 16.257812 C 8.3125 16.257812 8.191406 16.257812 8.070312 16.257812 C 8.070312 16.339844 8.070312 16.421875 8.070312 16.503906 C 7.664062 16.707031 7.261719 16.90625 6.847656 17.113281 C 6.847656 17.195312 6.847656 17.277344 6.847656 17.359375 C 6.683594 17.359375 6.523438 17.359375 6.355469 17.359375 C 6.355469 17.441406 6.355469 17.519531 6.355469 17.605469 C 6.113281 17.605469 5.871094 17.605469 5.625 17.605469 C 5.625 15.871094 5.625 14.132812 5.625 12.347656 C 5.785156 12.347656 5.945312 12.347656 6.113281 12.347656 C 6.113281 12.265625 6.113281 12.1875 6.113281 12.101562 C 6.234375 12.101562 6.355469 12.101562 6.480469 12.101562 C 6.480469 12.023438 6.480469 11.941406 6.480469 11.859375 C 6.640625 11.859375 6.800781 11.859375 6.96875 11.859375 C 6.96875 11.777344 6.96875 11.695312 6.96875 11.613281 C 7.183594 11.492188 7.402344 11.375 7.617188 11.253906 C 7.738281 11.1875 7.859375 11.121094 7.984375 11.050781 C 8.3125 10.878906 8.3125 10.878906 8.679688 10.757812 C 8.679688 10.675781 8.679688 10.597656 8.679688 10.511719 C 9.046875 10.269531 9.046875 10.269531 9.535156 10.269531 C 9.535156 10.1875 9.535156 10.109375 9.535156 10.023438 C 9.695312 10.023438 9.859375 10.023438 10.023438 10.023438 C 10.023438 9.945312 10.023438 9.863281 10.023438 9.78125 C 10.144531 9.78125 10.265625 9.78125 10.390625 9.78125 C 10.390625 9.699219 10.390625 9.617188 10.390625 9.535156 C 10.550781 9.535156 10.714844 9.535156 10.878906 9.535156 C 10.878906 9.453125 10.878906 9.375 10.878906 9.289062 C 11 9.234375 11.117188 9.179688 11.238281 9.121094 C 11.621094 8.964844 11.621094 8.964844 11.734375 8.679688 C 12.019531 8.585938 12.300781 8.503906 12.589844 8.433594 C 12.589844 8.355469 12.589844 8.273438 12.589844 8.191406 C 12.753906 8.191406 12.914062 8.191406 13.082031 8.191406 C 13.082031 8.109375 13.082031 8.03125 13.082031 7.945312 C 13.203125 7.945312 13.324219 7.945312 13.449219 7.945312 C 13.449219 7.867188 13.449219 7.785156 13.449219 7.703125 C 13.609375 7.703125 13.769531 7.703125 13.9375 7.703125 C 13.9375 7.621094 13.9375 7.539062 13.9375 7.457031 C 14.058594 7.457031 14.179688 7.457031 14.304688 7.457031 C 14.304688 7.375 14.304688 7.296875 14.304688 7.210938 C 15.210938 6.671875 15.210938 6.671875 15.648438 6.601562 C 15.648438 6.519531 15.648438 6.441406 15.648438 6.355469 C 15.769531 6.355469 15.890625 6.355469 16.015625 6.355469 C 16.015625 6.277344 16.015625 6.195312 16.015625 6.113281 C 16.175781 6.113281 16.335938 6.113281 16.503906 6.113281 C 16.503906 6.03125 16.503906 5.949219 16.503906 5.867188 C 16.828125 5.6875 16.980469 5.625 17.359375 5.625 C 17.359375 5.542969 17.359375 5.460938 17.359375 5.378906 C 17.558594 5.269531 17.558594 5.269531 17.765625 5.15625 C 18.027344 5.011719 18.210938 4.894531 18.421875 4.675781 C 18.582031 4.523438 18.582031 4.523438 19.070312 4.523438 C 19.070312 4.441406 19.070312 4.363281 19.070312 4.277344 C 19.230469 4.277344 19.394531 4.277344 19.558594 4.277344 C 19.558594 4.199219 19.558594 4.117188 19.558594 4.035156 C 19.679688 4.035156 19.800781 4.035156 19.925781 4.035156 C 19.925781 3.953125 19.925781 3.871094 19.925781 3.789062 C 20.089844 3.789062 20.25 3.789062 20.414062 3.789062 C 20.414062 3.710938 20.414062 3.628906 20.414062 3.546875 C 20.492188 3.503906 20.570312 3.460938 20.652344 3.421875 C 20.753906 3.367188 20.855469 3.3125 20.957031 3.253906 C 21.058594 3.199219 21.160156 3.148438 21.261719 3.089844 C 21.53125 2.953125 21.53125 2.953125 21.636719 2.691406 C 21.800781 2.691406 21.960938 2.691406 22.128906 2.691406 C 22.128906 2.609375 22.128906 2.527344 22.128906 2.445312 Z M 22.128906 2.445312 "/>
<path style=" stroke:none;fill-rule:nonzero;fill:rgb(98.431373%,74.901962%,16.862746%);fill-opacity:1;" d="M 22.003906 8.433594 C 22.355469 8.421875 22.355469 8.421875 22.738281 8.433594 C 22.984375 8.679688 22.984375 8.679688 23.105469 8.925781 C 23.320312 9.046875 23.320312 9.046875 23.59375 9.167969 C 23.839844 9.289062 24.082031 9.414062 24.328125 9.535156 C 24.328125 9.617188 24.328125 9.695312 24.328125 9.78125 C 24.488281 9.78125 24.648438 9.78125 24.816406 9.78125 C 24.816406 9.859375 24.816406 9.941406 24.816406 10.023438 C 24.976562 10.023438 25.140625 10.023438 25.304688 10.023438 C 25.304688 10.105469 25.304688 10.1875 25.304688 10.269531 C 25.425781 10.269531 25.546875 10.269531 25.671875 10.269531 C 25.671875 10.351562 25.671875 10.429688 25.671875 10.511719 C 25.832031 10.511719 25.996094 10.511719 26.160156 10.511719 C 26.160156 10.59375 26.160156 10.675781 26.160156 10.757812 C 26.28125 10.796875 26.402344 10.839844 26.527344 10.878906 C 26.488281 11.042969 26.449219 11.203125 26.40625 11.371094 C 26.324219 11.371094 26.246094 11.371094 26.160156 11.371094 C 26.160156 11.449219 26.160156 11.53125 26.160156 11.613281 C 26 11.613281 25.839844 11.613281 25.671875 11.613281 C 25.671875 11.695312 25.671875 11.773438 25.671875 11.859375 C 25.550781 11.859375 25.429688 11.859375 25.304688 11.859375 C 25.304688 11.9375 25.304688 12.019531 25.304688 12.101562 C 25.144531 12.101562 24.984375 12.101562 24.816406 12.101562 C 24.816406 12.183594 24.816406 12.265625 24.816406 12.347656 C 24.722656 12.394531 24.632812 12.445312 24.535156 12.496094 C 24.414062 12.558594 24.292969 12.625 24.167969 12.691406 C 24.046875 12.753906 23.925781 12.820312 23.800781 12.882812 C 23.476562 13.058594 23.476562 13.058594 23.277344 13.289062 C 23.105469 13.449219 23.105469 13.449219 22.617188 13.449219 C 22.617188 13.527344 22.617188 13.609375 22.617188 13.691406 C 22.453125 13.691406 22.292969 13.691406 22.128906 13.691406 C 22.128906 13.773438 22.128906 13.851562 22.128906 13.9375 C 22.007812 13.9375 21.886719 13.9375 21.761719 13.9375 C 21.761719 14.015625 21.761719 14.097656 21.761719 14.179688 C 21.597656 14.179688 21.4375 14.179688 21.269531 14.179688 C 21.269531 14.261719 21.269531 14.34375 21.269531 14.425781 C 20.949219 14.605469 20.796875 14.671875 20.414062 14.671875 C 20.414062 14.75 20.414062 14.832031 20.414062 14.914062 C 20.234375 14.976562 20.234375 14.976562 20.050781 15.035156 C 19.929688 15.15625 19.929688 15.15625 19.804688 15.28125 C 19.683594 15.402344 19.683594 15.402344 19.558594 15.527344 C 19.398438 15.527344 19.238281 15.527344 19.070312 15.527344 C 19.070312 15.605469 19.070312 15.6875 19.070312 15.769531 C 18.910156 15.769531 18.75 15.769531 18.582031 15.769531 C 18.582031 15.851562 18.582031 15.929688 18.582031 16.015625 C 18.421875 16.015625 18.257812 16.015625 18.09375 16.015625 C 18.09375 16.09375 18.09375 16.175781 18.09375 16.257812 C 17.972656 16.257812 17.851562 16.257812 17.726562 16.257812 C 17.726562 16.339844 17.726562 16.421875 17.726562 16.503906 C 17.324219 16.707031 16.917969 16.90625 16.503906 17.113281 C 16.503906 17.195312 16.503906 17.277344 16.503906 17.359375 C 16.175781 17.441406 15.851562 17.523438 15.527344 17.605469 C 15.527344 17.683594 15.527344 17.765625 15.527344 17.847656 C 15.363281 17.847656 15.203125 17.847656 15.035156 17.847656 C 15.035156 17.929688 15.035156 18.011719 15.035156 18.09375 C 14.875 18.09375 14.714844 18.09375 14.546875 18.09375 C 14.546875 18.171875 14.546875 18.253906 14.546875 18.335938 C 14.425781 18.335938 14.304688 18.335938 14.179688 18.335938 C 14.179688 18.417969 14.179688 18.5 14.179688 18.582031 C 13.371094 19.054688 13.371094 19.054688 12.957031 19.191406 C 12.917969 19.273438 12.878906 19.355469 12.835938 19.4375 C 12.675781 19.4375 12.511719 19.4375 12.347656 19.4375 C 12.347656 19.519531 12.347656 19.597656 12.347656 19.683594 C 12.226562 19.683594 12.105469 19.683594 11.980469 19.683594 C 11.980469 19.761719 11.980469 19.84375 11.980469 19.925781 C 11.820312 19.925781 11.65625 19.925781 11.492188 19.925781 C 11.492188 20.007812 11.492188 20.089844 11.492188 20.171875 C 11.328125 20.171875 11.167969 20.171875 11.003906 20.171875 C 11.003906 20.25 11.003906 20.332031 11.003906 20.414062 C 10.785156 20.535156 10.566406 20.65625 10.347656 20.773438 C 10.125 20.894531 10.125 20.894531 10.023438 21.148438 C 10.011719 21.398438 10.007812 21.644531 10.007812 21.894531 C 10.007812 22.050781 10.007812 22.210938 10.007812 22.375 C 10.007812 22.550781 10.011719 22.726562 10.011719 22.90625 C 10.011719 23.089844 10.011719 23.277344 10.011719 23.460938 C 10.011719 23.964844 10.011719 24.472656 10.011719 24.976562 C 10.011719 25.503906 10.011719 26.03125 10.011719 26.554688 C 10.011719 27.554688 10.015625 28.554688 10.015625 29.550781 C 10.015625 30.6875 10.019531 31.824219 10.019531 32.960938 C 10.019531 35.300781 10.023438 37.636719 10.023438 39.976562 C 9.742188 39.976562 9.460938 39.976562 9.167969 39.976562 C 9.167969 39.894531 9.167969 39.8125 9.167969 39.730469 C 9.046875 39.730469 8.925781 39.730469 8.800781 39.730469 C 8.800781 39.648438 8.800781 39.570312 8.800781 39.488281 C 8.601562 39.488281 8.398438 39.488281 8.191406 39.488281 C 8.191406 39.40625 8.191406 39.324219 8.191406 39.242188 C 7.949219 39.121094 7.707031 39 7.457031 38.875 C 7.457031 38.792969 7.457031 38.714844 7.457031 38.628906 C 7.296875 38.628906 7.132812 38.628906 6.96875 38.628906 C 6.96875 38.550781 6.96875 38.46875 6.96875 38.386719 C 6.847656 38.386719 6.726562 38.386719 6.601562 38.386719 C 6.601562 38.304688 6.601562 38.226562 6.601562 38.140625 C 6.480469 38.140625 6.359375 38.140625 6.234375 38.140625 C 6.234375 38.0625 6.234375 37.980469 6.234375 37.898438 C 6.03125 37.898438 5.832031 37.898438 5.625 37.898438 C 5.625 31.441406 5.625 24.988281 5.625 18.335938 C 5.746094 18.335938 5.867188 18.335938 5.988281 18.335938 C 5.988281 18.257812 5.988281 18.175781 5.988281 18.09375 C 6.152344 18.09375 6.3125 18.09375 6.480469 18.09375 C 6.480469 18.011719 6.480469 17.929688 6.480469 17.847656 C 6.601562 17.847656 6.722656 17.847656 6.847656 17.847656 C 6.847656 17.769531 6.847656 17.6875 6.847656 17.605469 C 7.167969 17.425781 7.320312 17.359375 7.703125 17.359375 C 7.703125 17.277344 7.703125 17.199219 7.703125 17.113281 C 7.820312 17.09375 7.820312 17.09375 7.9375 17.070312 C 8.0625 17.03125 8.0625 17.03125 8.191406 16.992188 C 8.230469 16.910156 8.269531 16.832031 8.3125 16.75 C 8.433594 16.628906 8.433594 16.628906 8.558594 16.503906 C 8.71875 16.503906 8.878906 16.503906 9.046875 16.503906 C 9.046875 16.421875 9.046875 16.34375 9.046875 16.257812 C 9.414062 16.015625 9.414062 16.015625 9.902344 16.015625 C 9.902344 15.933594 9.902344 15.851562 9.902344 15.769531 C 10.0625 15.769531 10.226562 15.769531 10.390625 15.769531 C 10.390625 15.691406 10.390625 15.609375 10.390625 15.527344 C 10.511719 15.527344 10.632812 15.527344 10.757812 15.527344 C 10.757812 15.445312 10.757812 15.363281 10.757812 15.28125 C 11.082031 15.101562 11.234375 15.035156 11.613281 15.035156 C 11.652344 14.914062 11.695312 14.792969 11.734375 14.671875 C 11.855469 14.671875 11.976562 14.671875 12.101562 14.671875 C 12.101562 14.589844 12.101562 14.507812 12.101562 14.425781 C 12.222656 14.425781 12.34375 14.425781 12.46875 14.425781 C 12.46875 14.34375 12.46875 14.265625 12.46875 14.179688 C 12.628906 14.179688 12.792969 14.179688 12.957031 14.179688 C 12.957031 14.101562 12.957031 14.019531 12.957031 13.9375 C 13.078125 13.9375 13.199219 13.9375 13.324219 13.9375 C 13.324219 13.855469 13.324219 13.773438 13.324219 13.691406 C 13.488281 13.691406 13.648438 13.691406 13.8125 13.691406 C 13.8125 13.609375 13.8125 13.53125 13.8125 13.449219 C 13.929688 13.390625 14.046875 13.335938 14.164062 13.28125 C 14.546875 13.105469 14.546875 13.105469 14.792969 12.835938 C 14.914062 12.714844 14.914062 12.714844 15.035156 12.589844 C 15.199219 12.589844 15.359375 12.589844 15.527344 12.589844 C 15.527344 12.511719 15.527344 12.429688 15.527344 12.347656 C 15.6875 12.347656 15.847656 12.347656 16.015625 12.347656 C 16.015625 12.265625 16.015625 12.1875 16.015625 12.101562 C 16.136719 12.101562 16.257812 12.101562 16.382812 12.101562 C 16.382812 12.023438 16.382812 11.941406 16.382812 11.859375 C 16.542969 11.859375 16.703125 11.859375 16.871094 11.859375 C 16.871094 11.777344 16.871094 11.695312 16.871094 11.613281 C 17.085938 11.492188 17.304688 11.375 17.519531 11.253906 C 17.699219 11.15625 17.699219 11.15625 17.886719 11.050781 C 18.214844 10.878906 18.214844 10.878906 18.582031 10.757812 C 18.582031 10.675781 18.582031 10.597656 18.582031 10.511719 C 18.949219 10.269531 18.949219 10.269531 19.4375 10.269531 C 19.4375 10.1875 19.4375 10.109375 19.4375 10.023438 C 19.597656 10.023438 19.761719 10.023438 19.925781 10.023438 C 19.925781 9.945312 19.925781 9.863281 19.925781 9.78125 C 20.046875 9.78125 20.167969 9.78125 20.292969 9.78125 C 20.292969 9.699219 20.292969 9.617188 20.292969 9.535156 C 20.453125 9.535156 20.617188 9.535156 20.78125 9.535156 C 20.78125 9.453125 20.78125 9.375 20.78125 9.289062 C 21.023438 9.171875 21.265625 9.050781 21.515625 8.925781 C 21.515625 8.84375 21.515625 8.761719 21.515625 8.679688 C 21.675781 8.640625 21.839844 8.597656 22.003906 8.558594 C 22.003906 8.515625 22.003906 8.476562 22.003906 8.433594 Z M 22.003906 8.433594 "/>
<path style=" stroke:none;fill-rule:nonzero;fill:rgb(100%,50.980395%,3.137255%);fill-opacity:1;" d="M 14.304688 18.828125 C 14.503906 18.828125 14.707031 18.828125 14.914062 18.828125 C 14.914062 25.121094 14.914062 31.414062 14.914062 37.898438 C 15.035156 37.898438 15.15625 37.898438 15.28125 37.898438 C 15.28125 37.976562 15.28125 38.058594 15.28125 38.140625 C 15.402344 38.140625 15.523438 38.140625 15.648438 38.140625 C 15.648438 38.222656 15.648438 38.304688 15.648438 38.386719 C 15.738281 38.375 15.828125 38.367188 15.921875 38.355469 C 16.359375 38.394531 16.464844 38.554688 16.75 38.875 C 16.828125 38.914062 16.910156 38.957031 16.992188 38.996094 C 16.992188 39.078125 16.992188 39.160156 16.992188 39.242188 C 17.152344 39.242188 17.316406 39.242188 17.480469 39.242188 C 17.480469 39.324219 17.480469 39.402344 17.480469 39.488281 C 17.601562 39.488281 17.722656 39.488281 17.847656 39.488281 C 17.847656 39.566406 17.847656 39.648438 17.847656 39.730469 C 18.050781 39.730469 18.25 39.730469 18.460938 39.730469 C 18.460938 39.8125 18.460938 39.890625 18.460938 39.976562 C 18.582031 39.976562 18.703125 39.976562 18.828125 39.976562 C 18.828125 40.054688 18.828125 40.136719 18.828125 40.21875 C 18.949219 40.21875 19.070312 40.21875 19.191406 40.21875 C 19.191406 40.300781 19.191406 40.382812 19.191406 40.464844 C 19.355469 40.464844 19.515625 40.464844 19.683594 40.464844 C 19.683594 40.546875 19.683594 40.625 19.683594 40.710938 C 20.121094 40.9375 20.570312 41.128906 21.027344 41.320312 C 21.027344 41.402344 21.027344 41.480469 21.027344 41.566406 C 21.148438 41.566406 21.269531 41.566406 21.394531 41.566406 C 21.394531 41.644531 21.394531 41.726562 21.394531 41.808594 C 21.488281 41.800781 21.582031 41.792969 21.675781 41.785156 C 22.070312 41.8125 22.113281 41.898438 22.371094 42.175781 C 22.628906 42.261719 22.628906 42.261719 22.859375 42.296875 C 22.859375 42.378906 22.859375 42.460938 22.859375 42.542969 C 23.101562 42.625 23.34375 42.703125 23.59375 42.789062 C 23.59375 42.867188 23.59375 42.949219 23.59375 43.03125 C 23.917969 43.164062 24.238281 43.289062 24.570312 43.398438 C 24.570312 43.480469 24.570312 43.558594 24.570312 43.644531 C 24.691406 43.644531 24.8125 43.644531 24.9375 43.644531 C 24.9375 43.722656 24.9375 43.804688 24.9375 43.886719 C 25.101562 43.886719 25.261719 43.886719 25.429688 43.886719 C 25.429688 43.96875 25.429688 44.050781 25.429688 44.132812 C 25.5 44.148438 25.570312 44.167969 25.640625 44.183594 C 25.898438 44.25 26.152344 44.3125 26.40625 44.375 C 26.40625 44.457031 26.40625 44.539062 26.40625 44.621094 C 26.527344 44.660156 26.648438 44.703125 26.773438 44.742188 C 26.988281 44.859375 27.199219 44.980469 27.40625 45.101562 C 27.515625 45.167969 27.628906 45.230469 27.742188 45.296875 C 27.824219 45.355469 27.910156 45.414062 27.996094 45.476562 C 27.996094 45.558594 27.996094 45.636719 27.996094 45.722656 C 28.195312 45.722656 28.398438 45.722656 28.605469 45.722656 C 28.605469 45.800781 28.605469 45.882812 28.605469 45.964844 C 28.726562 45.964844 28.847656 45.964844 28.972656 45.964844 C 28.972656 46.046875 28.972656 46.128906 28.972656 46.210938 C 29.046875 46.226562 29.121094 46.246094 29.195312 46.265625 C 29.410156 46.320312 29.621094 46.386719 29.828125 46.453125 C 29.828125 46.535156 29.828125 46.617188 29.828125 46.699219 C 29.988281 46.738281 30.152344 46.78125 30.316406 46.820312 C 30.316406 46.902344 30.316406 46.984375 30.316406 47.066406 C 30.480469 47.066406 30.640625 47.066406 30.808594 47.066406 C 30.765625 47.226562 30.726562 47.390625 30.683594 47.554688 C 27.820312 47.554688 24.957031 47.554688 22.003906 47.554688 C 22.003906 47.472656 22.003906 47.394531 22.003906 47.308594 C 21.398438 47.007812 21.398438 47.007812 20.78125 46.699219 C 20.78125 46.617188 20.78125 46.539062 20.78125 46.453125 C 20.660156 46.453125 20.539062 46.453125 20.414062 46.453125 C 20.414062 46.375 20.414062 46.292969 20.414062 46.210938 C 20.253906 46.210938 20.09375 46.210938 19.925781 46.210938 C 19.925781 46.128906 19.925781 46.050781 19.925781 45.964844 C 19.765625 45.964844 19.605469 45.964844 19.4375 45.964844 C 19.4375 45.886719 19.4375 45.804688 19.4375 45.722656 C 19.277344 45.722656 19.113281 45.722656 18.949219 45.722656 C 18.703125 45.476562 18.703125 45.476562 18.582031 45.230469 C 18.421875 45.230469 18.257812 45.230469 18.09375 45.230469 C 17.929688 45.070312 17.765625 44.90625 17.605469 44.742188 C 17.324219 44.597656 17.042969 44.488281 16.75 44.375 C 16.75 44.296875 16.75 44.214844 16.75 44.132812 C 16.628906 44.132812 16.507812 44.132812 16.382812 44.132812 C 16.382812 44.050781 16.382812 43.96875 16.382812 43.886719 C 16.179688 43.886719 15.976562 43.886719 15.769531 43.886719 C 15.769531 43.808594 15.769531 43.726562 15.769531 43.644531 C 15.648438 43.601562 15.527344 43.5625 15.402344 43.519531 C 14.964844 43.324219 14.570312 43.070312 14.179688 42.789062 C 14.179688 42.707031 14.179688 42.625 14.179688 42.542969 C 14.039062 42.515625 14.039062 42.515625 13.898438 42.488281 C 13.570312 42.421875 13.570312 42.421875 13.203125 42.296875 C 13.203125 42.21875 13.203125 42.136719 13.203125 42.054688 C 13.082031 42.054688 12.960938 42.054688 12.835938 42.054688 C 12.835938 41.972656 12.835938 41.890625 12.835938 41.808594 C 12.675781 41.808594 12.511719 41.808594 12.347656 41.808594 C 12.347656 41.730469 12.347656 41.648438 12.347656 41.566406 C 12.242188 41.542969 12.242188 41.542969 12.132812 41.519531 C 11.640625 41.382812 11.285156 41.136719 10.878906 40.832031 C 10.777344 40.78125 10.671875 40.734375 10.5625 40.683594 C 10.269531 40.464844 10.269531 40.464844 10.191406 40.121094 C 10.191406 39.980469 10.191406 39.839844 10.191406 39.695312 C 10.191406 39.613281 10.191406 39.535156 10.191406 39.457031 C 10.1875 39.191406 10.191406 38.929688 10.195312 38.664062 C 10.191406 38.476562 10.191406 38.289062 10.191406 38.097656 C 10.191406 37.585938 10.191406 37.074219 10.195312 36.558594 C 10.199219 36.023438 10.195312 35.488281 10.195312 34.953125 C 10.195312 34.050781 10.199219 33.152344 10.203125 32.25 C 10.207031 31.207031 10.207031 30.167969 10.207031 29.125 C 10.207031 28.121094 10.207031 27.121094 10.210938 26.121094 C 10.210938 25.695312 10.210938 25.265625 10.210938 24.839844 C 10.210938 24.339844 10.214844 23.835938 10.214844 23.335938 C 10.21875 23.148438 10.21875 22.964844 10.21875 22.78125 C 10.214844 22.53125 10.21875 22.277344 10.222656 22.027344 C 10.222656 21.886719 10.222656 21.746094 10.222656 21.601562 C 10.238281 21.492188 10.253906 21.382812 10.269531 21.269531 C 10.636719 21.027344 10.636719 21.027344 11.125 21.027344 C 11.125 20.90625 11.125 20.785156 11.125 20.660156 C 11.285156 20.660156 11.449219 20.660156 11.613281 20.660156 C 11.613281 20.578125 11.613281 20.5 11.613281 20.414062 C 11.980469 20.171875 11.980469 20.171875 12.46875 20.171875 C 12.46875 20.089844 12.46875 20.011719 12.46875 19.925781 C 12.628906 19.925781 12.792969 19.925781 12.957031 19.925781 C 12.957031 19.847656 12.957031 19.765625 12.957031 19.683594 C 13.046875 19.640625 13.132812 19.597656 13.222656 19.558594 C 13.332031 19.503906 13.445312 19.449219 13.5625 19.390625 C 13.730469 19.3125 13.730469 19.3125 13.902344 19.226562 C 14.195312 19.097656 14.195312 19.097656 14.304688 18.828125 Z M 14.304688 18.828125 "/>
<path style=" stroke:none;fill-rule:nonzero;fill:rgb(98.431373%,75.294119%,17.254902%);fill-opacity:1;" d="M 15.527344 32.640625 C 15.769531 32.640625 16.011719 32.640625 16.257812 32.640625 C 16.257812 32.761719 16.257812 32.882812 16.257812 33.007812 C 16.378906 32.96875 16.5 32.925781 16.625 32.886719 C 16.667969 33.007812 16.707031 33.128906 16.75 33.25 C 16.871094 33.25 16.988281 33.25 17.113281 33.25 C 17.113281 33.332031 17.113281 33.414062 17.113281 33.496094 C 17.277344 33.496094 17.4375 33.496094 17.605469 33.496094 C 17.605469 33.578125 17.605469 33.65625 17.605469 33.742188 C 17.726562 33.742188 17.847656 33.742188 17.96875 33.742188 C 17.96875 33.820312 17.96875 33.902344 17.96875 33.984375 C 18.171875 33.984375 18.375 33.984375 18.582031 33.984375 C 18.582031 34.066406 18.582031 34.148438 18.582031 34.230469 C 18.703125 34.230469 18.824219 34.230469 18.949219 34.230469 C 18.949219 34.308594 18.949219 34.390625 18.949219 34.472656 C 19.042969 34.464844 19.136719 34.453125 19.230469 34.445312 C 19.394531 34.457031 19.394531 34.457031 19.558594 34.472656 C 19.613281 34.546875 19.667969 34.625 19.722656 34.699219 C 19.96875 35.019531 20.199219 35.128906 20.5625 35.300781 C 20.671875 35.351562 20.78125 35.402344 20.894531 35.457031 C 20.980469 35.496094 21.0625 35.535156 21.148438 35.574219 C 21.148438 35.65625 21.148438 35.734375 21.148438 35.820312 C 21.308594 35.820312 21.472656 35.820312 21.636719 35.820312 C 21.636719 35.898438 21.636719 35.980469 21.636719 36.0625 C 21.757812 36.0625 21.878906 36.0625 22.003906 36.0625 C 22.003906 36.144531 22.003906 36.226562 22.003906 36.308594 C 22.09375 36.296875 22.179688 36.289062 22.273438 36.277344 C 22.71875 36.316406 22.894531 36.507812 23.226562 36.796875 C 23.308594 36.796875 23.390625 36.796875 23.472656 36.796875 C 23.539062 36.871094 23.609375 36.941406 23.679688 37.019531 C 24.035156 37.355469 24.359375 37.476562 24.816406 37.652344 C 24.816406 37.734375 24.816406 37.8125 24.816406 37.898438 C 24.9375 37.898438 25.058594 37.898438 25.183594 37.898438 C 25.183594 37.976562 25.183594 38.058594 25.183594 38.140625 C 25.34375 38.140625 25.507812 38.140625 25.671875 38.140625 C 25.671875 38.222656 25.671875 38.304688 25.671875 38.386719 C 25.832031 38.386719 25.996094 38.386719 26.160156 38.386719 C 26.160156 38.46875 26.160156 38.546875 26.160156 38.628906 C 26.324219 38.628906 26.484375 38.628906 26.648438 38.628906 C 26.648438 38.75 26.648438 38.871094 26.648438 38.996094 C 26.714844 39.007812 26.777344 39.019531 26.839844 39.027344 C 27.195312 39.136719 27.472656 39.308594 27.789062 39.496094 C 28.015625 39.621094 28.230469 39.691406 28.484375 39.730469 C 28.484375 39.8125 28.484375 39.890625 28.484375 39.976562 C 28.605469 39.976562 28.726562 39.976562 28.851562 39.976562 C 28.851562 40.054688 28.851562 40.136719 28.851562 40.21875 C 29.011719 40.21875 29.171875 40.21875 29.339844 40.21875 C 29.339844 40.300781 29.339844 40.382812 29.339844 40.464844 C 29.460938 40.464844 29.582031 40.464844 29.707031 40.464844 C 29.789062 40.546875 29.867188 40.625 29.949219 40.710938 C 30.03125 40.710938 30.113281 40.710938 30.195312 40.710938 C 30.316406 40.832031 30.441406 40.953125 30.5625 41.074219 C 30.8125 41.222656 30.8125 41.222656 31.074219 41.34375 C 31.160156 41.386719 31.25 41.425781 31.339844 41.472656 C 31.40625 41.5 31.472656 41.53125 31.539062 41.566406 C 31.539062 41.644531 31.539062 41.726562 31.539062 41.808594 C 31.660156 41.808594 31.78125 41.808594 31.90625 41.808594 C 31.90625 41.890625 31.90625 41.96875 31.90625 42.054688 C 32.148438 42.054688 32.390625 42.054688 32.640625 42.054688 C 32.640625 41.972656 32.640625 41.890625 32.640625 41.808594 C 32.761719 41.808594 32.882812 41.808594 33.007812 41.808594 C 33.007812 41.730469 33.007812 41.648438 33.007812 41.566406 C 33.167969 41.566406 33.328125 41.566406 33.496094 41.566406 C 33.496094 41.484375 33.496094 41.402344 33.496094 41.320312 C 33.65625 41.320312 33.820312 41.320312 33.984375 41.320312 C 33.984375 41.238281 33.984375 41.160156 33.984375 41.074219 C 34.148438 41.035156 34.308594 40.996094 34.472656 40.953125 C 34.472656 40.871094 34.472656 40.792969 34.472656 40.710938 C 34.636719 40.710938 34.796875 40.710938 34.964844 40.710938 C 34.964844 40.628906 34.964844 40.546875 34.964844 40.464844 C 35.085938 40.464844 35.207031 40.464844 35.328125 40.464844 C 35.328125 40.382812 35.328125 40.304688 35.328125 40.21875 C 35.492188 40.21875 35.652344 40.21875 35.820312 40.21875 C 35.820312 40.140625 35.820312 40.058594 35.820312 39.976562 C 35.941406 39.976562 36.0625 39.976562 36.1875 39.976562 C 36.1875 39.894531 36.1875 39.8125 36.1875 39.730469 C 36.347656 39.730469 36.507812 39.730469 36.675781 39.730469 C 36.675781 39.648438 36.675781 39.570312 36.675781 39.488281 C 37.078125 39.285156 37.480469 39.082031 37.898438 38.875 C 37.898438 38.792969 37.898438 38.714844 37.898438 38.628906 C 38.058594 38.628906 38.21875 38.628906 38.386719 38.628906 C 38.386719 38.550781 38.386719 38.46875 38.386719 38.386719 C 38.753906 38.140625 38.753906 38.140625 39.242188 38.140625 C 39.242188 38.0625 39.242188 37.980469 39.242188 37.898438 C 39.402344 37.898438 39.566406 37.898438 39.730469 37.898438 C 39.730469 37.816406 39.730469 37.734375 39.730469 37.652344 C 39.890625 37.652344 40.054688 37.652344 40.21875 37.652344 C 40.21875 37.570312 40.21875 37.492188 40.21875 37.410156 C 40.339844 37.410156 40.460938 37.410156 40.585938 37.410156 C 40.585938 37.328125 40.585938 37.246094 40.585938 37.164062 C 40.75 37.164062 40.910156 37.164062 41.074219 37.164062 C 41.074219 37.042969 41.074219 36.921875 41.074219 36.796875 C 41.238281 36.796875 41.398438 36.796875 41.566406 36.796875 C 41.566406 36.714844 41.566406 36.636719 41.566406 36.550781 C 41.808594 36.308594 41.808594 36.308594 42.128906 36.292969 C 42.226562 36.296875 42.320312 36.304688 42.421875 36.308594 C 42.421875 36.226562 42.421875 36.148438 42.421875 36.0625 C 42.582031 36.0625 42.742188 36.0625 42.910156 36.0625 C 42.910156 35.984375 42.910156 35.902344 42.910156 35.820312 C 43.03125 35.820312 43.152344 35.820312 43.277344 35.820312 C 43.277344 35.738281 43.277344 35.65625 43.277344 35.574219 C 43.476562 35.574219 43.679688 35.574219 43.886719 35.574219 C 43.902344 36.300781 43.914062 37.023438 43.921875 37.75 C 43.925781 37.996094 43.929688 38.242188 43.933594 38.488281 C 43.941406 38.84375 43.945312 39.195312 43.945312 39.550781 C 43.949219 39.660156 43.953125 39.769531 43.957031 39.882812 C 43.957031 40.171875 43.953125 40.429688 43.886719 40.710938 C 43.59375 40.949219 43.59375 40.949219 43.277344 41.074219 C 43.191406 41.160156 43.109375 41.242188 43.023438 41.328125 C 42.785156 41.566406 42.613281 41.691406 42.296875 41.808594 C 42.136719 41.808594 41.976562 41.808594 41.808594 41.808594 C 41.808594 41.890625 41.808594 41.96875 41.808594 42.054688 C 41.648438 42.054688 41.488281 42.054688 41.320312 42.054688 C 41.320312 42.132812 41.320312 42.214844 41.320312 42.296875 C 40.996094 42.476562 40.84375 42.542969 40.464844 42.542969 C 40.464844 42.625 40.464844 42.703125 40.464844 42.789062 C 40.347656 42.84375 40.226562 42.898438 40.105469 42.957031 C 39.722656 43.113281 39.722656 43.113281 39.609375 43.398438 C 39.449219 43.398438 39.285156 43.398438 39.121094 43.398438 C 39.121094 43.480469 39.121094 43.558594 39.121094 43.644531 C 38.957031 43.644531 38.796875 43.644531 38.628906 43.644531 C 38.628906 43.722656 38.628906 43.804688 38.628906 43.886719 C 38.511719 43.886719 38.390625 43.886719 38.265625 43.886719 C 38.265625 43.96875 38.265625 44.050781 38.265625 44.132812 C 38.101562 44.132812 37.941406 44.132812 37.773438 44.132812 C 37.773438 44.210938 37.773438 44.292969 37.773438 44.375 C 37.203125 44.660156 36.632812 44.945312 36.0625 45.230469 C 36.0625 45.3125 36.0625 45.394531 36.0625 45.476562 C 35.902344 45.476562 35.742188 45.476562 35.574219 45.476562 C 35.574219 45.558594 35.574219 45.636719 35.574219 45.722656 C 35.207031 45.964844 35.207031 45.964844 34.71875 45.964844 C 34.71875 46.046875 34.71875 46.128906 34.71875 46.210938 C 34.558594 46.210938 34.394531 46.210938 34.230469 46.210938 C 34.230469 46.289062 34.230469 46.371094 34.230469 46.453125 C 34.109375 46.453125 33.988281 46.453125 33.863281 46.453125 C 33.863281 46.535156 33.863281 46.617188 33.863281 46.699219 C 33.582031 46.820312 33.296875 46.941406 33.007812 47.066406 C 33.007812 47.148438 33.007812 47.226562 33.007812 47.308594 C 32.609375 47.578125 32.492188 47.632812 32.03125 47.554688 C 31.820312 47.355469 31.617188 47.152344 31.417969 46.945312 C 31.09375 46.78125 31.09375 46.78125 30.808594 46.699219 C 30.808594 46.617188 30.808594 46.539062 30.808594 46.453125 C 30.6875 46.453125 30.566406 46.453125 30.441406 46.453125 C 30.441406 46.375 30.441406 46.292969 30.441406 46.210938 C 30.277344 46.210938 30.117188 46.210938 29.949219 46.210938 C 29.949219 46.128906 29.949219 46.050781 29.949219 45.964844 C 29.839844 45.9375 29.839844 45.9375 29.730469 45.914062 C 29.515625 45.855469 29.304688 45.792969 29.09375 45.722656 C 29.09375 45.640625 29.09375 45.558594 29.09375 45.476562 C 28.933594 45.476562 28.773438 45.476562 28.605469 45.476562 C 28.363281 45.230469 28.363281 45.230469 28.238281 44.988281 C 27.996094 44.898438 27.753906 44.820312 27.507812 44.742188 C 27.425781 44.703125 27.34375 44.664062 27.261719 44.621094 C 27.261719 44.539062 27.261719 44.460938 27.261719 44.375 C 27.140625 44.375 27.019531 44.375 26.894531 44.375 C 26.894531 44.296875 26.894531 44.214844 26.894531 44.132812 C 26.734375 44.132812 26.570312 44.132812 26.40625 44.132812 C 26.40625 44.050781 26.40625 43.96875 26.40625 43.886719 C 26.285156 43.886719 26.164062 43.886719 26.039062 43.886719 C 26.039062 43.808594 26.039062 43.726562 26.039062 43.644531 C 25.949219 43.652344 25.863281 43.664062 25.773438 43.671875 C 25.3125 43.632812 25.164062 43.453125 24.816406 43.152344 C 24.558594 42.992188 24.296875 42.835938 24.03125 42.683594 C 23.96875 42.636719 23.902344 42.589844 23.839844 42.542969 C 23.839844 42.460938 23.839844 42.382812 23.839844 42.296875 C 23.675781 42.296875 23.515625 42.296875 23.351562 42.296875 C 23.351562 42.21875 23.351562 42.136719 23.351562 42.054688 C 23.1875 42.054688 23.027344 42.054688 22.859375 42.054688 C 22.859375 41.972656 22.859375 41.890625 22.859375 41.808594 C 22.738281 41.808594 22.617188 41.808594 22.492188 41.808594 C 22.492188 41.730469 22.492188 41.648438 22.492188 41.566406 C 22.402344 41.574219 22.308594 41.585938 22.210938 41.59375 C 22.101562 41.585938 21.996094 41.574219 21.882812 41.566406 C 21.757812 41.402344 21.636719 41.238281 21.515625 41.074219 C 21.238281 40.925781 20.957031 40.820312 20.660156 40.710938 C 20.660156 40.628906 20.660156 40.546875 20.660156 40.464844 C 20.539062 40.464844 20.417969 40.464844 20.292969 40.464844 C 20.292969 40.382812 20.292969 40.304688 20.292969 40.21875 C 20.089844 40.21875 19.890625 40.21875 19.683594 40.21875 C 19.683594 40.140625 19.683594 40.058594 19.683594 39.976562 C 19.5625 39.933594 19.441406 39.894531 19.316406 39.851562 C 18.320312 39.453125 18.320312 39.453125 18.09375 38.996094 C 17.773438 38.855469 17.449219 38.742188 17.113281 38.628906 C 17.113281 38.550781 17.113281 38.46875 17.113281 38.386719 C 16.992188 38.386719 16.871094 38.386719 16.75 38.386719 C 16.75 38.304688 16.75 38.226562 16.75 38.140625 C 16.585938 38.140625 16.425781 38.140625 16.257812 38.140625 C 16.257812 38.0625 16.257812 37.980469 16.257812 37.898438 C 16.097656 37.898438 15.9375 37.898438 15.769531 37.898438 C 15.523438 37.523438 15.496094 37.457031 15.496094 37.039062 C 15.496094 36.941406 15.496094 36.84375 15.496094 36.742188 C 15.5 36.636719 15.5 36.535156 15.5 36.425781 C 15.503906 36.316406 15.503906 36.210938 15.503906 36.097656 C 15.503906 35.753906 15.507812 35.40625 15.511719 35.0625 C 15.511719 34.828125 15.511719 34.59375 15.515625 34.359375 C 15.515625 33.789062 15.519531 33.214844 15.527344 32.640625 Z M 15.527344 32.640625 "/>
<path style=" stroke:none;fill-rule:nonzero;fill:rgb(21.960784%,39.607844%,69.01961%);fill-opacity:1;" d="M 23.839844 2.445312 C 26.664062 2.445312 29.488281 2.445312 32.394531 2.445312 C 32.394531 2.527344 32.394531 2.605469 32.394531 2.691406 C 32.558594 2.691406 32.71875 2.691406 32.886719 2.691406 C 32.886719 2.808594 32.886719 2.929688 32.886719 3.054688 C 32.953125 3.070312 33.023438 3.082031 33.09375 3.097656 C 33.414062 3.191406 33.667969 3.328125 33.953125 3.492188 C 34.050781 3.546875 34.148438 3.601562 34.25 3.660156 C 34.324219 3.703125 34.398438 3.746094 34.472656 3.789062 C 34.472656 3.871094 34.472656 3.949219 34.472656 4.035156 C 34.675781 4.035156 34.878906 4.035156 35.085938 4.035156 C 35.085938 4.113281 35.085938 4.195312 35.085938 4.277344 C 35.207031 4.277344 35.328125 4.277344 35.453125 4.277344 C 35.453125 4.359375 35.453125 4.441406 35.453125 4.523438 C 35.652344 4.523438 35.855469 4.523438 36.0625 4.523438 C 36.0625 4.605469 36.0625 4.683594 36.0625 4.769531 C 36.304688 4.890625 36.546875 5.011719 36.796875 5.132812 C 36.796875 5.214844 36.796875 5.296875 36.796875 5.378906 C 36.957031 5.378906 37.121094 5.378906 37.285156 5.378906 C 37.285156 5.460938 37.285156 5.539062 37.285156 5.625 C 37.40625 5.625 37.527344 5.625 37.652344 5.625 C 37.652344 5.703125 37.652344 5.785156 37.652344 5.867188 C 37.8125 5.867188 37.976562 5.867188 38.140625 5.867188 C 38.140625 5.949219 38.140625 6.03125 38.140625 6.113281 C 38.304688 6.113281 38.464844 6.113281 38.628906 6.113281 C 38.628906 6.191406 38.628906 6.273438 38.628906 6.355469 C 38.75 6.355469 38.871094 6.355469 38.996094 6.355469 C 38.996094 6.4375 38.996094 6.519531 38.996094 6.601562 C 39.160156 6.601562 39.320312 6.601562 39.488281 6.601562 C 39.488281 6.683594 39.488281 6.761719 39.488281 6.847656 C 39.808594 7.019531 40.105469 7.136719 40.464844 7.210938 C 40.464844 7.292969 40.464844 7.375 40.464844 7.457031 C 40.585938 7.457031 40.707031 7.457031 40.832031 7.457031 C 40.832031 7.539062 40.832031 7.617188 40.832031 7.703125 C 40.90625 7.71875 40.976562 7.738281 41.054688 7.753906 C 41.265625 7.808594 41.476562 7.875 41.6875 7.945312 C 41.6875 8.027344 41.6875 8.109375 41.6875 8.191406 C 41.808594 8.191406 41.929688 8.191406 42.054688 8.191406 C 42.054688 8.269531 42.054688 8.351562 42.054688 8.433594 C 42.144531 8.425781 42.234375 8.414062 42.328125 8.40625 C 42.769531 8.445312 42.855469 8.609375 43.152344 8.925781 C 43.394531 9.046875 43.636719 9.167969 43.886719 9.289062 C 43.886719 10.984375 43.886719 12.679688 43.886719 14.425781 C 43.277344 14.304688 43.277344 14.304688 42.910156 14.179688 C 42.910156 14.101562 42.910156 14.019531 42.910156 13.9375 C 42.75 13.9375 42.585938 13.9375 42.421875 13.9375 C 42.421875 13.855469 42.421875 13.773438 42.421875 13.691406 C 42.300781 13.691406 42.179688 13.691406 42.054688 13.691406 C 42.054688 13.609375 42.054688 13.53125 42.054688 13.449219 C 41.960938 13.453125 41.867188 13.460938 41.769531 13.46875 C 41.441406 13.449219 41.441406 13.449219 41.222656 13.28125 C 41.074219 13.082031 41.074219 13.082031 41.074219 12.835938 C 40.953125 12.835938 40.832031 12.835938 40.710938 12.835938 C 40.710938 12.753906 40.710938 12.675781 40.710938 12.589844 C 40.546875 12.589844 40.386719 12.589844 40.21875 12.589844 C 40.21875 12.511719 40.21875 12.429688 40.21875 12.347656 C 40.058594 12.347656 39.898438 12.347656 39.730469 12.347656 C 39.730469 12.265625 39.730469 12.1875 39.730469 12.101562 C 39.570312 12.101562 39.410156 12.101562 39.242188 12.101562 C 39.242188 12.023438 39.242188 11.941406 39.242188 11.859375 C 39.121094 11.859375 39 11.859375 38.875 11.859375 C 38.875 11.777344 38.875 11.695312 38.875 11.613281 C 38.753906 11.613281 38.632812 11.613281 38.507812 11.613281 C 38.429688 11.53125 38.347656 11.453125 38.265625 11.371094 C 38.082031 11.308594 38.082031 11.308594 37.898438 11.246094 C 37.734375 11.125 37.570312 11.003906 37.410156 10.878906 C 37.226562 10.820312 37.226562 10.820312 37.042969 10.757812 C 37.042969 10.675781 37.042969 10.597656 37.042969 10.511719 C 36.921875 10.511719 36.800781 10.511719 36.675781 10.511719 C 36.675781 10.433594 36.675781 10.351562 36.675781 10.269531 C 36.554688 10.269531 36.433594 10.269531 36.308594 10.269531 C 36.308594 10.1875 36.308594 10.109375 36.308594 10.023438 C 36.214844 10.03125 36.121094 10.035156 36.023438 10.039062 C 35.695312 10.023438 35.695312 10.023438 35.328125 9.78125 C 35.328125 9.699219 35.328125 9.617188 35.328125 9.535156 C 35.257812 9.519531 35.183594 9.5 35.109375 9.480469 C 34.894531 9.425781 34.683594 9.359375 34.472656 9.289062 C 34.472656 9.210938 34.472656 9.128906 34.472656 9.046875 C 34.152344 8.875 33.855469 8.757812 33.496094 8.679688 C 33.496094 8.597656 33.496094 8.519531 33.496094 8.433594 C 33.375 8.433594 33.253906 8.433594 33.128906 8.433594 C 33.128906 8.355469 33.128906 8.273438 33.128906 8.191406 C 32.96875 8.191406 32.808594 8.191406 32.640625 8.191406 C 32.640625 8.109375 32.640625 8.03125 32.640625 7.945312 C 32.519531 7.945312 32.398438 7.945312 32.273438 7.945312 C 32.273438 7.867188 32.273438 7.785156 32.273438 7.703125 C 32.152344 7.703125 32.03125 7.703125 31.90625 7.703125 C 31.90625 7.621094 31.90625 7.539062 31.90625 7.457031 C 31.8125 7.464844 31.71875 7.472656 31.625 7.480469 C 31.296875 7.457031 31.296875 7.457031 31.074219 7.289062 C 30.929688 7.089844 30.929688 7.089844 30.929688 6.847656 C 30.808594 6.847656 30.6875 6.847656 30.5625 6.847656 C 30.5625 6.765625 30.5625 6.683594 30.5625 6.601562 C 30.46875 6.582031 30.375 6.566406 30.28125 6.546875 C 29.949219 6.480469 29.949219 6.480469 29.585938 6.355469 C 29.585938 6.277344 29.585938 6.195312 29.585938 6.113281 C 29.421875 6.113281 29.261719 6.113281 29.09375 6.113281 C 29.09375 6.03125 29.09375 5.949219 29.09375 5.867188 C 28.972656 5.867188 28.851562 5.867188 28.730469 5.867188 C 28.730469 5.789062 28.730469 5.707031 28.730469 5.625 C 28.65625 5.609375 28.585938 5.59375 28.515625 5.578125 C 28.132812 5.472656 27.835938 5.320312 27.519531 5.082031 C 27.207031 4.851562 26.878906 4.691406 26.527344 4.523438 C 26.527344 4.441406 26.527344 4.363281 26.527344 4.277344 C 26.40625 4.277344 26.285156 4.277344 26.160156 4.277344 C 26.160156 4.199219 26.160156 4.117188 26.160156 4.035156 C 26.019531 4.042969 26.019531 4.042969 25.878906 4.050781 C 25.550781 4.035156 25.550781 4.035156 25.183594 3.789062 C 25.183594 3.710938 25.183594 3.628906 25.183594 3.546875 C 25.0625 3.546875 24.941406 3.546875 24.816406 3.546875 C 24.816406 3.464844 24.816406 3.382812 24.816406 3.300781 C 24.65625 3.300781 24.492188 3.300781 24.328125 3.300781 C 24.328125 3.21875 24.328125 3.140625 24.328125 3.054688 C 24.167969 3.015625 24.003906 2.976562 23.839844 2.933594 C 23.839844 2.773438 23.839844 2.609375 23.839844 2.445312 Z M 23.839844 2.445312 "/>
<path style=" stroke:none;fill-rule:nonzero;fill:rgb(21.960784%,39.607844%,69.01961%);fill-opacity:1;" d="M 39.019531 32.371094 C 39.167969 32.375 39.167969 32.375 39.320312 32.378906 C 39.46875 32.382812 39.46875 32.382812 39.621094 32.386719 C 39.734375 32.390625 39.734375 32.390625 39.851562 32.394531 C 39.851562 32.476562 39.851562 32.558594 39.851562 32.640625 C 39.972656 32.640625 40.09375 32.640625 40.21875 32.640625 C 40.21875 32.722656 40.21875 32.800781 40.21875 32.886719 C 40.335938 32.921875 40.453125 32.960938 40.570312 33 C 40.953125 33.128906 40.953125 33.128906 41.199219 33.25 C 41.199219 33.332031 41.199219 33.414062 41.199219 33.496094 C 41.359375 33.496094 41.519531 33.496094 41.6875 33.496094 C 41.6875 33.578125 41.6875 33.65625 41.6875 33.742188 C 41.808594 33.742188 41.929688 33.742188 42.054688 33.742188 C 42.054688 33.820312 42.054688 33.902344 42.054688 33.984375 C 42.214844 33.984375 42.375 33.984375 42.542969 33.984375 C 42.542969 34.066406 42.542969 34.148438 42.542969 34.230469 C 42.703125 34.230469 42.867188 34.230469 43.03125 34.230469 C 43.03125 34.308594 43.03125 34.390625 43.03125 34.472656 C 43.152344 34.472656 43.273438 34.472656 43.398438 34.472656 C 43.398438 34.675781 43.398438 34.878906 43.398438 35.085938 C 43.316406 35.085938 43.238281 35.085938 43.152344 35.085938 C 43.152344 35.167969 43.152344 35.246094 43.152344 35.328125 C 42.992188 35.328125 42.832031 35.328125 42.664062 35.328125 C 42.664062 35.410156 42.664062 35.492188 42.664062 35.574219 C 42.542969 35.574219 42.421875 35.574219 42.296875 35.574219 C 42.296875 35.65625 42.296875 35.734375 42.296875 35.820312 C 42.136719 35.820312 41.976562 35.820312 41.808594 35.820312 C 41.808594 35.898438 41.808594 35.980469 41.808594 36.0625 C 41.6875 36.0625 41.566406 36.0625 41.441406 36.0625 C 41.441406 36.144531 41.441406 36.226562 41.441406 36.308594 C 41.28125 36.308594 41.121094 36.308594 40.953125 36.308594 C 40.953125 36.390625 40.953125 36.46875 40.953125 36.550781 C 40.792969 36.550781 40.628906 36.550781 40.464844 36.550781 C 40.464844 36.632812 40.464844 36.714844 40.464844 36.796875 C 40.230469 36.992188 40.003906 37.148438 39.730469 37.285156 C 39.65625 37.347656 39.578125 37.414062 39.5 37.476562 C 39.242188 37.652344 39.242188 37.652344 38.753906 37.652344 C 38.753906 37.734375 38.753906 37.8125 38.753906 37.898438 C 38.589844 37.898438 38.429688 37.898438 38.265625 37.898438 C 38.265625 37.976562 38.265625 38.058594 38.265625 38.140625 C 38.144531 38.140625 38.023438 38.140625 37.898438 38.140625 C 37.898438 38.222656 37.898438 38.304688 37.898438 38.386719 C 37.734375 38.386719 37.574219 38.386719 37.410156 38.386719 C 37.410156 38.46875 37.410156 38.546875 37.410156 38.628906 C 37.085938 38.808594 36.933594 38.875 36.550781 38.875 C 36.550781 38.996094 36.550781 39.117188 36.550781 39.242188 C 36.390625 39.242188 36.230469 39.242188 36.0625 39.242188 C 36.0625 39.324219 36.0625 39.402344 36.0625 39.488281 C 35.941406 39.488281 35.820312 39.488281 35.695312 39.488281 C 35.695312 39.566406 35.695312 39.648438 35.695312 39.730469 C 35.535156 39.730469 35.375 39.730469 35.207031 39.730469 C 35.207031 39.8125 35.207031 39.890625 35.207031 39.976562 C 35.046875 39.976562 34.886719 39.976562 34.71875 39.976562 C 34.71875 40.054688 34.71875 40.136719 34.71875 40.21875 C 34.597656 40.21875 34.476562 40.21875 34.351562 40.21875 C 34.351562 40.300781 34.351562 40.382812 34.351562 40.464844 C 34.195312 40.542969 34.042969 40.621094 33.886719 40.703125 C 33.757812 40.765625 33.757812 40.765625 33.625 40.835938 C 33.375 40.953125 33.375 40.953125 33.007812 41.074219 C 33.007812 41.15625 33.007812 41.238281 33.007812 41.320312 C 32.609375 41.585938 32.492188 41.621094 32.03125 41.566406 C 31.769531 41.398438 31.769531 41.398438 31.539062 41.199219 C 31.359375 41.078125 31.359375 41.078125 31.171875 40.953125 C 31.171875 40.871094 31.171875 40.792969 31.171875 40.710938 C 31.050781 40.710938 30.929688 40.710938 30.808594 40.710938 C 30.808594 40.628906 30.808594 40.546875 30.808594 40.464844 C 30.644531 40.464844 30.484375 40.464844 30.316406 40.464844 C 30.316406 40.382812 30.316406 40.304688 30.316406 40.21875 C 30.15625 40.21875 29.996094 40.21875 29.828125 40.21875 C 29.828125 40.140625 29.828125 40.058594 29.828125 39.976562 C 29.667969 39.976562 29.507812 39.976562 29.339844 39.976562 C 29.339844 39.894531 29.339844 39.8125 29.339844 39.730469 C 29.21875 39.730469 29.097656 39.730469 28.972656 39.730469 C 28.972656 39.648438 28.972656 39.570312 28.972656 39.488281 C 28.769531 39.488281 28.570312 39.488281 28.363281 39.488281 C 28.320312 39.203125 28.28125 38.921875 28.238281 38.628906 C 28.320312 38.628906 28.402344 38.628906 28.484375 38.628906 C 28.484375 38.550781 28.484375 38.46875 28.484375 38.386719 C 28.605469 38.386719 28.726562 38.386719 28.851562 38.386719 C 28.851562 38.304688 28.851562 38.226562 28.851562 38.140625 C 29.011719 38.140625 29.171875 38.140625 29.339844 38.140625 C 29.339844 38.0625 29.339844 37.980469 29.339844 37.898438 C 29.5 37.898438 29.664062 37.898438 29.828125 37.898438 C 29.828125 37.816406 29.828125 37.734375 29.828125 37.652344 C 29.988281 37.652344 30.152344 37.652344 30.316406 37.652344 C 30.316406 37.570312 30.316406 37.492188 30.316406 37.410156 C 30.640625 37.230469 30.792969 37.164062 31.171875 37.164062 C 31.214844 37.042969 31.253906 36.921875 31.296875 36.796875 C 31.417969 36.796875 31.539062 36.796875 31.664062 36.796875 C 31.664062 36.714844 31.664062 36.636719 31.664062 36.550781 C 32.03125 36.308594 32.03125 36.308594 32.519531 36.308594 C 32.519531 36.226562 32.519531 36.148438 32.519531 36.0625 C 32.679688 36.0625 32.839844 36.0625 33.007812 36.0625 C 33.007812 35.984375 33.007812 35.902344 33.007812 35.820312 C 33.167969 35.820312 33.328125 35.820312 33.496094 35.820312 C 33.496094 35.738281 33.496094 35.65625 33.496094 35.574219 C 33.746094 35.402344 33.746094 35.402344 34.078125 35.214844 C 34.390625 35.035156 34.6875 34.863281 34.976562 34.648438 C 35.4375 34.304688 35.992188 34.097656 36.550781 33.984375 C 36.550781 33.90625 36.550781 33.824219 36.550781 33.742188 C 36.714844 33.742188 36.875 33.742188 37.042969 33.742188 C 37.042969 33.660156 37.042969 33.578125 37.042969 33.496094 C 37.195312 33.417969 37.351562 33.339844 37.507812 33.257812 C 37.59375 33.214844 37.679688 33.171875 37.769531 33.125 C 38.019531 33.007812 38.019531 33.007812 38.386719 32.886719 C 38.425781 32.804688 38.46875 32.722656 38.507812 32.640625 C 38.753906 32.394531 38.753906 32.394531 39.019531 32.371094 Z M 39.019531 32.371094 "/>
<path style=" stroke:none;fill-rule:nonzero;fill:rgb(100%,49.803922%,0%);fill-opacity:1;" d="M 5.378906 18.214844 C 5.625 18.335938 5.625 18.335938 5.625 18.335938 Z M 5.378906 18.214844 "/>
</g>
</svg>
