<?xml version="1.0" encoding="UTF-8"?>
<svg xmlns="http://www.w3.org/2000/svg" xmlns:xlink="http://www.w3.org/1999/xlink" width="50px" height="50px" viewBox="0 0 50 50" version="1.1">
<g id="surface1">
<path style=" stroke:none;fill-rule:nonzero;fill:rgb(100%,100%,100%);fill-opacity:1;" d="M 21.949219 12.015625 L 14.695312 8.324219 L 6.734375 12.328125 L 14.183594 16.097656 Z M 21.949219 12.015625 "/>
<path style=" stroke:none;fill-rule:nonzero;fill:rgb(85.09804%,85.09804%,85.09804%);fill-opacity:1;" d="M 25.277344 13.703125 L 32.882812 17.574219 L 24.992188 21.566406 L 17.527344 17.789062 Z M 25.277344 13.703125 "/>
<path style=" stroke:none;fill-rule:nonzero;fill:rgb(65.098041%,65.098041%,65.098041%);fill-opacity:1;" d="M 35.433594 8.378906 L 43.25 12.328125 L 36.261719 15.863281 L 28.636719 11.992188 Z M 35.433594 8.378906 "/>
<path style=" stroke:none;fill-rule:nonzero;fill:rgb(45.09804%,45.09804%,45.09804%);fill-opacity:1;" d="M 32.070312 6.679688 L 25.035156 3.125 L 18.078125 6.625 L 25.328125 10.308594 Z M 32.070312 6.679688 "/>
<path style=" stroke:none;fill-rule:nonzero;fill:rgb(25.098041%,25.098041%,25.098041%);fill-opacity:1;" d="M 26.570312 37.203125 L 26.570312 46.875 L 35.09375 42.589844 L 35.085938 32.914062 Z M 26.570312 37.203125 "/>
<path style=" stroke:none;fill-rule:nonzero;fill:rgb(0%,0%,0%);fill-opacity:1;" d="M 35.082031 29.535156 L 35.070312 19.960938 L 26.570312 24.21875 L 26.570312 33.796875 Z M 35.082031 29.535156 "/>
<path style=" stroke:none;fill-rule:nonzero;fill:rgb(100%,100%,100%);fill-opacity:1;" d="M 45.3125 27.742188 L 45.3125 37.453125 L 38.042969 41.105469 L 38.039062 31.441406 Z M 45.3125 27.742188 "/>
<path style=" stroke:none;fill-rule:nonzero;fill:rgb(85.09804%,85.09804%,85.09804%);fill-opacity:1;" d="M 45.3125 24.34375 L 45.3125 14.828125 L 38.03125 18.476562 L 38.035156 28.074219 Z M 45.3125 24.34375 "/>
<path style=" stroke:none;fill-rule:nonzero;fill:rgb(65.098041%,65.098041%,65.098041%);fill-opacity:1;" d="M 23.5625 24.21875 L 17.820312 21.3125 L 17.820312 33.882812 C 17.820312 33.882812 10.800781 18.828125 10.15625 17.476562 C 10.019531 17.300781 9.84375 17.160156 9.640625 17.0625 C 8.375 16.40625 4.6875 14.515625 4.6875 14.515625 L 4.6875 36.71875 L 9.789062 39.46875 L 9.789062 27.863281 C 9.789062 27.863281 16.734375 41.3125 16.804688 41.457031 C 17.164062 42.238281 17.679688 42.941406 18.320312 43.519531 C 19.3125 44.179688 23.5625 46.757812 23.5625 46.757812 Z M 23.5625 24.21875 "/>
</g>
</svg>
